<svg width="30" height="30" viewBox="0 0 30 30" fill="none" xmlns="http://www.w3.org/2000/svg">
<g filter="url(#filter0_i_7_890)">
<rect width="30" height="30" rx="15" fill="#182536"/>
</g>
<rect x="0.25" y="0.25" width="29.5" height="29.5" rx="14.75" stroke="white" stroke-opacity="0.6" stroke-width="0.5"/>
<path d="M13.4408 22.9604C11.3431 22.5521 9.53436 21.3261 8.35201 19.648H11.3136C11.8198 21.1417 12.5633 22.3176 13.4408 22.9604ZM10.602 15.3516C10.6298 16.6239 10.805 17.8409 11.0958 18.9289H7.90189C7.30924 17.8594 6.9504 16.6424 6.8949 15.3516H10.602ZM14.6385 15.3516V18.9289H11.9208C11.6341 17.8594 11.4593 16.6424 11.4318 15.3516H14.6385ZM12.1416 19.648H14.6385V22.7022C13.6243 22.4872 12.727 21.3445 12.1416 19.648ZM7.90743 11.0551H11.094C10.8025 12.1246 10.6277 13.3417 10.6015 14.6509H6.89453C6.94911 13.3417 7.31016 12.1246 7.90743 11.0551ZM14.6385 11.0551V14.6509H11.4313C11.4571 13.3417 11.6315 12.1062 11.919 11.0551H14.6385ZM11.3114 10.336H8.35901C9.53584 8.65796 11.3298 7.45292 13.4104 7.03969C12.5448 7.68785 11.8119 8.84236 11.3114 10.336ZM14.6385 7.24321V10.336H12.1392C12.7246 8.62108 13.6243 7.45858 14.6385 7.24321ZM15.3576 19.648H17.8512C17.2706 21.3261 16.3718 22.4682 15.3576 22.6968V19.648ZM18.561 15.3516C18.5335 16.6424 18.3587 17.8594 18.0719 18.9289H15.3576V15.3516H18.561ZM18.0738 11.0551C18.3613 12.1062 18.5357 13.3417 18.5615 14.6509H15.3576V11.0551H18.0738ZM17.8536 10.336H15.3576V7.24856C16.3903 7.47758 17.2728 8.63952 17.8536 10.336ZM21.6419 10.336H18.6814C18.1804 8.84236 17.4463 7.68545 16.5796 7.03748C18.6648 7.44868 20.463 8.65796 21.6419 10.336ZM23.1064 14.6509H19.3913C19.3651 13.3417 19.1903 12.1246 18.8988 11.0551H22.0935C22.6907 12.1246 23.0518 13.3417 23.1064 14.6509ZM18.6792 19.648H21.6489C20.4643 21.3261 18.6513 22.5564 16.5488 22.9626C17.4277 22.3203 18.1724 21.1417 18.6792 19.648ZM23.106 15.3516C23.0505 16.6424 22.6916 17.8594 22.099 18.9289H18.8969C19.1877 17.8409 19.3629 16.6239 19.3908 15.3516H23.106Z" fill="white"/>
<defs>
<filter id="filter0_i_7_890" x="0" y="0" width="30" height="32" filterUnits="userSpaceOnUse" color-interpolation-filters="sRGB">
<feFlood flood-opacity="0" result="BackgroundImageFix"/>
<feBlend mode="normal" in="SourceGraphic" in2="BackgroundImageFix" result="shape"/>
<feColorMatrix in="SourceAlpha" type="matrix" values="0 0 0 0 0 0 0 0 0 0 0 0 0 0 0 0 0 0 127 0" result="hardAlpha"/>
<feOffset dy="2"/>
<feGaussianBlur stdDeviation="1"/>
<feComposite in2="hardAlpha" operator="arithmetic" k2="-1" k3="1"/>
<feColorMatrix type="matrix" values="0 0 0 0 1 0 0 0 0 1 0 0 0 0 1 0 0 0 0.25 0"/>
<feBlend mode="normal" in2="shape" result="effect1_innerShadow_7_890"/>
</filter>
</defs>
</svg>
