<svg width="30" height="30" viewBox="0 0 30 30" fill="none" xmlns="http://www.w3.org/2000/svg">
<g filter="url(#filter0_i_7_884)">
<rect width="30" height="30" rx="15" fill="#182536"/>
</g>
<rect x="0.25" y="0.25" width="29.5" height="29.5" rx="14.75" stroke="white" stroke-opacity="0.6" stroke-width="0.5"/>
<path d="M9.09641 20.5811L13.7315 15.6267L9.06055 9.37558C9.17807 9.36496 9.25443 9.35168 9.33145 9.35168C10.3015 9.35168 11.2715 9.35699 12.2416 9.34571C12.3298 9.34083 12.4178 9.35984 12.4962 9.40073C12.5746 9.44163 12.6405 9.50289 12.6871 9.57809C13.6166 10.8299 14.5503 12.0785 15.4883 13.3241C15.5387 13.3905 15.5925 13.4569 15.6649 13.5492C15.9504 13.2498 16.2259 12.9649 16.4968 12.6754C17.4323 11.6762 18.3745 10.6836 19.2934 9.66905C19.3798 9.55221 19.496 9.46074 19.6298 9.4042C19.7637 9.34767 19.9103 9.32816 20.0543 9.3477C20.233 9.35765 20.4121 9.35765 20.5908 9.3477L16.1064 14.1587L20.94 20.6243C20.8072 20.6362 20.7408 20.6488 20.6671 20.6488C19.7449 20.6488 18.8213 20.6362 17.8998 20.6568C17.7704 20.6685 17.6404 20.6441 17.5241 20.5863C17.4078 20.5285 17.3099 20.4396 17.2411 20.3295C16.299 19.0401 15.3376 17.7646 14.3821 16.4845C14.3204 16.4015 14.2493 16.3239 14.167 16.2189C13.7255 16.689 13.2966 17.1432 12.8703 17.5993C11.9806 18.5508 11.0969 19.5082 10.1979 20.4503C10.0747 20.5566 9.92211 20.623 9.76036 20.6409C9.55395 20.6597 9.34639 20.6623 9.13957 20.6488L9.09641 20.5811ZM10.5398 10.094C10.6242 10.2181 10.668 10.2885 10.7178 10.3549C11.225 11.0321 11.7325 11.7089 12.2402 12.3853C14.0577 14.8118 15.8758 17.2379 17.6946 19.6635C17.761 19.7505 17.8533 19.8753 17.9376 19.8793C18.4442 19.8999 18.9521 19.8893 19.5059 19.8893C19.4122 19.7565 19.3551 19.6728 19.2941 19.5912L16.2339 15.5065C14.9343 13.7723 13.6336 12.0391 12.3318 10.3071C12.268 10.2072 12.1689 10.1349 12.0543 10.1046C11.571 10.0827 11.0869 10.094 10.5398 10.094Z" fill="white"/>
<defs>
<filter id="filter0_i_7_884" x="0" y="0" width="30" height="32" filterUnits="userSpaceOnUse" color-interpolation-filters="sRGB">
<feFlood flood-opacity="0" result="BackgroundImageFix"/>
<feBlend mode="normal" in="SourceGraphic" in2="BackgroundImageFix" result="shape"/>
<feColorMatrix in="SourceAlpha" type="matrix" values="0 0 0 0 0 0 0 0 0 0 0 0 0 0 0 0 0 0 127 0" result="hardAlpha"/>
<feOffset dy="2"/>
<feGaussianBlur stdDeviation="1"/>
<feComposite in2="hardAlpha" operator="arithmetic" k2="-1" k3="1"/>
<feColorMatrix type="matrix" values="0 0 0 0 1 0 0 0 0 1 0 0 0 0 1 0 0 0 0.25 0"/>
<feBlend mode="normal" in2="shape" result="effect1_innerShadow_7_884"/>
</filter>
</defs>
</svg>
